<?xml version="1.0" encoding="UTF-8" standalone="no"?>
<svg
   xmlns:dc="http://purl.org/dc/elements/1.1/"
   xmlns:cc="http://creativecommons.org/ns#"
   xmlns:rdf="http://www.w3.org/1999/02/22-rdf-syntax-ns#"
   xmlns:svg="http://www.w3.org/2000/svg"
   xmlns="http://www.w3.org/2000/svg"
   xmlns:sodipodi="http://sodipodi.sourceforge.net/DTD/sodipodi-0.dtd"
   xmlns:inkscape="http://www.inkscape.org/namespaces/inkscape"
   width="81"
   height="81"
   viewBox="0 0 81 81"
   fill="none"
   version="1.1"
   id="svg22"
   sodipodi:docname="competency-2.svg"
   inkscape:version="0.92.0 unknown">
  <metadata
     id="metadata28">
    <rdf:RDF>
      <cc:Work
         rdf:about="">
        <dc:format>image/svg+xml</dc:format>
        <dc:type
           rdf:resource="http://purl.org/dc/dcmitype/StillImage" />
      </cc:Work>
    </rdf:RDF>
  </metadata>
  <defs
     id="defs26" />
  <sodipodi:namedview
     pagecolor="#ffffff"
     bordercolor="#666666"
     borderopacity="1"
     objecttolerance="10"
     gridtolerance="10"
     guidetolerance="10"
     inkscape:pageopacity="0"
     inkscape:pageshadow="2"
     inkscape:window-width="1847"
     inkscape:window-height="1053"
     id="namedview24"
     showgrid="false"
     inkscape:zoom="10.345486"
     inkscape:cx="24.074509"
     inkscape:cy="26.026709"
     inkscape:window-x="73"
     inkscape:window-y="27"
     inkscape:window-maximized="1"
     inkscape:current-layer="svg22" />
  <path
     d="M6.25 63V21C6.25 18.9289 7.92893 17.25 10 17.25H23.5H70C72.0711 17.25 73.75 18.9289 73.75 21V63C73.75 65.0711 72.0711 66.75 70 66.75H23.5H10C7.92893 66.75 6.25 65.0711 6.25 63Z"
     stroke="#F14D34"
     stroke-width="2.5"
     id="path2" />
  <path
     d="M30.5 24H37.5"
     stroke="#F14D34"
     stroke-width="2.5"
     id="path4" />
  <path
     d="M11 24H18"
     id="path6"
     stroke-width="2.5"
     stroke="#F14D34" />
  <path
     d="M11 35H18"
     id="path8"
     stroke-width="2.5"
     stroke="#F14D34" />
  <path
     d="M11 41H18"
     id="path10"
     stroke-width="2.5"
     stroke="#F14D34" />
  <path
     d="M11 47H18"
     stroke="#F14D34"
     stroke-width="2.5"
     id="path12" />
  <path
     d="M11 53H15"
     id="path14"
     stroke-width="2.5"
     stroke="#F14D34" />
  <path
     d="M41 24H48"
     stroke="#F14D34"
     stroke-width="2.5"
     id="path16" />
  <path
     d="M52 24H59"
     stroke="#F14D34"
     stroke-width="2.5"
     id="path18" />
  <g
     style="fill:#050c33;fill-opacity:1"
     id="Layer_1_5_"
     transform="matrix(0.76906252,0,0,0.76906252,28.216416,27.276571)">
    <g
       style="fill:#050c33;fill-opacity:1"
       id="g14">
      <path
         style="fill:#050c33;fill-opacity:1"
         id="path2-3"
         d="m 17.567,15.938 -2.859,-2.702 c 0.333,-0.605 0.539,-1.29 0.539,-2.029 0,-2.342 -1.897,-4.239 -4.24,-4.239 -2.343,0 -4.243,1.896 -4.243,4.239 0,2.343 1.9,4.241 4.243,4.241 0.826,0 1.59,-0.246 2.242,-0.654 l 2.855,2.699 c 0.432,-0.571 0.919,-1.094 1.463,-1.555 z"
         inkscape:connector-curvature="0" />
      <path
         style="fill:#050c33;fill-opacity:1"
         id="path4-6"
         d="m 29.66,15.6 3.799,-6.393 c 0.374,0.107 0.762,0.184 1.169,0.184 2.347,0 4.244,-1.898 4.244,-4.241 0,-2.342 -1.897,-4.239 -4.244,-4.239 -2.343,0 -4.239,1.896 -4.239,4.239 0,1.163 0.469,2.214 1.227,2.981 l -3.787,6.375 c 0.651,0.295 1.265,0.663 1.831,1.094 z"
         inkscape:connector-curvature="0" />
      <path
         style="fill:#050c33;fill-opacity:1"
         id="path6-7"
         d="m 42.762,20.952 c -1.824,0 -3.369,1.159 -3.968,2.775 l -5.278,-0.521 c 0,0.04 0.006,0.078 0.006,0.117 0,0.688 -0.076,1.36 -0.213,2.009 l 5.276,0.521 c 0.319,2.024 2.062,3.576 4.177,3.576 2.342,0 4.238,-1.896 4.238,-4.238 0,-2.341 -1.896,-4.239 -4.238,-4.239 z"
         inkscape:connector-curvature="0" />
      <path
         style="fill:#050c33;fill-opacity:1"
         id="path8-5"
         d="m 28.197,37.624 -1.18,-5.156 c -0.666,0.232 -1.359,0.398 -2.082,0.481 l 1.182,5.157 c -1.355,0.709 -2.29,2.11 -2.29,3.746 0,2.342 1.896,4.237 4.243,4.237 2.342,0 4.238,-1.896 4.238,-4.237 0.003,-2.299 -1.829,-4.16 -4.111,-4.228 z"
         inkscape:connector-curvature="0" />
      <path
         style="fill:#050c33;fill-opacity:1"
         id="path10-3"
         d="m 14.357,25.37 -6.57,2.201 C 7.029,26.413 5.724,25.645 4.239,25.645 1.896,25.645 0,27.542 0,29.884 c 0,2.345 1.896,4.242 4.239,4.242 2.341,0 4.242,-1.897 4.242,-4.242 0,-0.098 -0.021,-0.188 -0.029,-0.284 l 6.591,-2.207 C 14.746,26.752 14.51,26.077 14.357,25.37 Z"
         inkscape:connector-curvature="0" />
      <circle
         style="fill:#050c33;fill-opacity:1"
         id="circle12"
         r="7.2709999"
         cy="23.323"
         cx="23.83" />
    </g>
  </g>
</svg>
