<?xml version="1.0" encoding="UTF-8" standalone="no"?>
<svg
   xmlns:dc="http://purl.org/dc/elements/1.1/"
   xmlns:cc="http://creativecommons.org/ns#"
   xmlns:rdf="http://www.w3.org/1999/02/22-rdf-syntax-ns#"
   xmlns:svg="http://www.w3.org/2000/svg"
   xmlns="http://www.w3.org/2000/svg"
   xmlns:sodipodi="http://sodipodi.sourceforge.net/DTD/sodipodi-0.dtd"
   xmlns:inkscape="http://www.inkscape.org/namespaces/inkscape"
   width="81"
   height="81"
   viewBox="0 0 81 81"
   fill="none"
   id="svg2"
   version="1.1"
   inkscape:version="0.92.0 unknown"
   sodipodi:docname="competency-13.svg">
  <metadata
     id="metadata40">
    <rdf:RDF>
      <cc:Work
         rdf:about="">
        <dc:format>image/svg+xml</dc:format>
        <dc:type
           rdf:resource="http://purl.org/dc/dcmitype/StillImage" />
        <dc:title />
      </cc:Work>
    </rdf:RDF>
  </metadata>
  <defs
     id="defs38" />
  <sodipodi:namedview
     pagecolor="#ffffff"
     bordercolor="#666666"
     borderopacity="1"
     objecttolerance="10"
     gridtolerance="10"
     guidetolerance="10"
     inkscape:pageopacity="0"
     inkscape:pageshadow="2"
     inkscape:window-width="1847"
     inkscape:window-height="1053"
     id="namedview36"
     showgrid="false"
     inkscape:zoom="4.1204247"
     inkscape:cx="-42.618987"
     inkscape:cy="-12.224028"
     inkscape:window-x="73"
     inkscape:window-y="27"
     inkscape:window-maximized="1"
     inkscape:current-layer="svg2" />
  <path
     d="M 3,59.82 3,64 c 0,2.7614 2.23857,5 5,5 l 25.3194,0 39.5695,0 0,0 C 75.1594,69 77,67.1594 77,64.8889 L 77,59.82 m 0,0 L 77,20 c 0,-2.7614 -2.2386,-5 -5,-5 L 70.4706,15 33.75,15 10.6176,15 8,15 c -2.76142,0 -5,2.2386 -5,5 l 0,39.82"
     id="path4"
     inkscape:connector-curvature="0"
     style="stroke:#f14d34;stroke-width:2.5"
     sodipodi:nodetypes="csscccsccsscccssc" />
  <path
     d="m 55.853,62.051 0,-3 c 0,-0.9665 0.7835,-1.75 1.75,-1.75 l 1.2286,0 8.7714,0 c 0.9665,0 1.75,0.7835 1.75,1.75 l 0,3 c 0,0.9665 -0.7835,1.75 -1.75,1.75 l -8.7714,0 -1.2286,0 c -0.9665,0 -1.75,-0.7835 -1.75,-1.75 z"
     id="path10"
     inkscape:connector-curvature="0"
     style="stroke:#f14d34;stroke-width:2.5" />
  <path
     d="m 21.109,62.051434 0,-3 c 0,-0.9665 0.7835,-1.75 1.75,-1.75 l 1.2286,0 8.7714,0 c 0.9665,0 1.75,0.7835 1.75,1.75 l 0,3 c 0,0.9665 -0.7835,1.75 -1.75,1.75 l -8.7714,0 -1.2286,0 c -0.9665,0 -1.75,-0.7835 -1.75,-1.75 z"
     id="path12"
     inkscape:connector-curvature="0"
     style="stroke:#f14d34;stroke-width:2.5" />
  <path
     d="M32 69V76H48V69"
     stroke="#F14D34"
     stroke-width="2.5"
     id="path14" />
  <path
     d="M57 76H23"
     stroke="#F14D34"
     stroke-width="2.5"
     id="path16" />
  <path
     d="m 9.359,58.051434 7,0"
     id="path28"
     inkscape:connector-curvature="0"
     style="stroke:#f14d34;stroke-width:3" />
  <path
     d="m 9.359,63.051434 4,0"
     id="path30"
     inkscape:connector-curvature="0"
     style="stroke:#f14d34;stroke-width:3" />
  <path
     d="m 44.103,58.051 7,0"
     id="path32"
     inkscape:connector-curvature="0"
     style="stroke:#f14d34;stroke-width:3" />
  <path
     d="m 44.103,63.051 4,0"
     id="path34"
     inkscape:connector-curvature="0"
     style="stroke:#f14d34;stroke-width:3" />
  <g
     aria-label="schema.org"
     style="font-style:normal;font-weight:normal;font-size:7.5px;line-height:125%;font-family:sans-serif;letter-spacing:0px;word-spacing:0px;fill:#050c33;fill-opacity:1;stroke:none;stroke-width:1px;stroke-linecap:butt;stroke-linejoin:miter;stroke-opacity:1"
     id="text4168">
    <path
       d="m 11.606855,38.092949 q -0.68,0 -1.34,-0.15 -0.6600005,-0.16 -1.0600005,-0.41 l 0.57,-1.3 q 0.3700005,0.23 0.8800005,0.37 0.51,0.13 1.01,0.13 0.46,0 0.65,-0.09 0.2,-0.1 0.2,-0.28 0,-0.18 -0.24,-0.25 -0.23,-0.08 -0.74,-0.15 -0.65,-0.08 -1.11,-0.21 -0.4500005,-0.13 -0.7800005,-0.48 -0.33,-0.35 -0.33,-0.98 0,-0.52 0.31,-0.92 0.31,-0.41 0.9000005,-0.64 0.6,-0.24 1.43,-0.24 0.59,0 1.17,0.12 0.58,0.12 0.97,0.34 l -0.57,1.29 q -0.72,-0.4 -1.56,-0.4 -0.45,0 -0.66,0.11 -0.21,0.1 -0.21,0.27 0,0.19 0.23,0.27 0.23,0.07 0.76,0.15 0.67,0.1 1.11,0.23 0.44,0.13 0.76,0.48 0.33,0.34 0.33,0.96 0,0.51 -0.31,0.92 -0.31,0.4 -0.92,0.63 -0.6,0.23 -1.45,0.23 z"
       style="font-style:normal;font-variant:normal;font-weight:800;font-stretch:normal;font-size:10px;font-family:Montserrat;-inkscape-font-specification:'Montserrat Ultra-Bold';fill:#050c33;fill-opacity:1"
       id="path27" />
    <path
       d="m 17.875605,38.092949 q -0.9,0 -1.61,-0.36 -0.71,-0.36 -1.11,-1 -0.39,-0.64 -0.39,-1.45 0,-0.81 0.39,-1.44 0.4,-0.64 1.11,-0.99 0.71,-0.36 1.61,-0.36 0.92,0 1.59,0.4 0.67,0.39 0.95,1.09 l -1.47,0.75 q -0.37,-0.73 -1.08,-0.73 -0.51,0 -0.85,0.34 -0.33,0.34 -0.33,0.94 0,0.61 0.33,0.96 0.34,0.34 0.85,0.34 0.71,0 1.08,-0.73 l 1.47,0.75 q -0.28,0.7 -0.95,1.1 -0.67,0.39 -1.59,0.39 z"
       style="font-style:normal;font-variant:normal;font-weight:800;font-stretch:normal;font-size:10px;font-family:Montserrat;-inkscape-font-specification:'Montserrat Ultra-Bold';fill:#050c33;fill-opacity:1"
       id="path29" />
    <path
       d="m 24.65123,32.492949 q 1.01,0 1.62,0.6 0.62,0.6 0.62,1.81 v 3.1 h -1.9 v -2.79 q 0,-1.11 -0.89,-1.11 -0.49,0 -0.79,0.32 -0.29,0.32 -0.29,0.96 v 2.62 h -1.9 v -7.42 h 1.9 v 2.5 q 0.31,-0.29 0.73,-0.44 0.42,-0.15 0.9,-0.15 z"
       style="font-style:normal;font-variant:normal;font-weight:800;font-stretch:normal;font-size:10px;font-family:Montserrat;-inkscape-font-specification:'Montserrat Ultra-Bold';fill:#050c33;fill-opacity:1"
       id="path31" />
    <path
       d="m 33.69248,35.302949 q 0,0.02 -0.03,0.47 h -3.94 q 0.12,0.42 0.46,0.65 0.35,0.22 0.87,0.22 0.39,0 0.67,-0.11 0.29,-0.11 0.58,-0.36 l 1,1.04 q -0.79,0.88 -2.31,0.88 -0.95,0 -1.67,-0.36 -0.72,-0.36 -1.12,-1 -0.39,-0.64 -0.39,-1.45 0,-0.8 0.38,-1.43 0.39,-0.64 1.07,-1 0.68,-0.36 1.53,-0.36 0.81,0 1.47,0.34 0.66,0.33 1.04,0.97 0.39,0.63 0.39,1.5 z m -2.89,-1.46 q -0.44,0 -0.74,0.25 -0.29,0.25 -0.37,0.68 h 2.22 q -0.08,-0.43 -0.38,-0.68 -0.29,-0.25 -0.73,-0.25 z"
       style="font-style:normal;font-variant:normal;font-weight:800;font-stretch:normal;font-size:10px;font-family:Montserrat;-inkscape-font-specification:'Montserrat Ultra-Bold';fill:#050c33;fill-opacity:1"
       id="path33" />
    <path
       d="m 41.638261,32.492949 q 1,0 1.59,0.6 0.6,0.6 0.6,1.81 v 3.1 h -1.9 v -2.79 q 0,-0.57 -0.22,-0.84 -0.21,-0.27 -0.6,-0.27 -0.43,0 -0.69,0.3 -0.26,0.3 -0.26,0.91 v 2.69 h -1.9 v -2.79 q 0,-1.11 -0.82,-1.11 -0.44,0 -0.7,0.3 -0.26,0.3 -0.26,0.91 v 2.69 h -1.9 v -5.42 h 1.81 v 0.57 q 0.3,-0.33 0.71,-0.49 0.42,-0.17 0.91,-0.17 0.57,0 1.02,0.21 0.45,0.21 0.73,0.64 0.32,-0.41 0.81,-0.63 0.49,-0.22 1.07,-0.22 z"
       style="font-style:normal;font-variant:normal;font-weight:800;font-stretch:normal;font-size:10px;font-family:Montserrat;-inkscape-font-specification:'Montserrat Ultra-Bold';fill:#050c33;fill-opacity:1"
       id="path35" />
    <path
       d="m 47.33748,32.492949 q 1.35,0 2.06,0.62 0.71,0.61 0.71,1.88 v 3.01 h -1.77 v -0.7 q -0.41,0.79 -1.6,0.79 -0.63,0 -1.09,-0.22 -0.46,-0.22 -0.7,-0.59 -0.23,-0.38 -0.23,-0.86 0,-0.77 0.59,-1.19 0.59,-0.43 1.82,-0.43 h 1.08 q -0.05,-0.86 -1.15,-0.86 -0.39,0 -0.79,0.13 -0.4,0.12 -0.68,0.34 l -0.64,-1.29 q 0.45,-0.3 1.09,-0.46 0.65,-0.17 1.3,-0.17 z m -0.07,4.4 q 0.33,0 0.58,-0.16 0.25,-0.16 0.36,-0.47 v -0.47 h -0.82 q -0.83,0 -0.83,0.55 0,0.25 0.19,0.4 0.19,0.15 0.52,0.15 z"
       style="font-style:normal;font-variant:normal;font-weight:800;font-stretch:normal;font-size:10px;font-family:Montserrat;-inkscape-font-specification:'Montserrat Ultra-Bold';fill:#050c33;fill-opacity:1"
       id="path37" />
    <path
       d="m 52.116542,38.092949 q -0.48,0 -0.81,-0.32 -0.33,-0.32 -0.33,-0.81 0,-0.5 0.32,-0.81 0.33,-0.31 0.82,-0.31 0.5,0 0.82,0.31 0.32,0.31 0.32,0.81 0,0.49 -0.33,0.81 -0.32,0.32 -0.81,0.32 z"
       style="font-style:normal;font-variant:normal;font-weight:800;font-stretch:normal;font-size:10px;font-family:Montserrat;-inkscape-font-specification:'Montserrat Ultra-Bold';fill:#050c33;fill-opacity:1"
       id="path39" />
    <path
       d="m 56.829511,38.092949 q -0.87,0 -1.57,-0.36 -0.7,-0.36 -1.1,-1 -0.39,-0.64 -0.39,-1.45 0,-0.8 0.39,-1.44 0.4,-0.64 1.09,-0.99 0.7,-0.36 1.58,-0.36 0.88,0 1.58,0.36 0.7,0.35 1.09,0.99 0.39,0.63 0.39,1.44 0,0.81 -0.39,1.45 -0.39,0.64 -1.09,1 -0.7,0.36 -1.58,0.36 z m 0,-1.51 q 0.5,0 0.82,-0.34 0.32,-0.35 0.32,-0.96 0,-0.6 -0.32,-0.94 -0.32,-0.34 -0.82,-0.34 -0.5,0 -0.82,0.34 -0.32,0.34 -0.32,0.94 0,0.61 0.32,0.96 0.32,0.34 0.82,0.34 z"
       style="font-style:normal;font-variant:normal;font-weight:800;font-stretch:normal;font-size:10px;font-family:Montserrat;-inkscape-font-specification:'Montserrat Ultra-Bold';fill:#050c33;fill-opacity:1"
       id="path41" />
    <path
       d="m 62.579667,33.232949 q 0.29,-0.37 0.75,-0.55 0.47,-0.19 1.07,-0.19 v 1.71 q -0.26,-0.03 -0.43,-0.03 -0.61,0 -0.96,0.33 -0.34,0.33 -0.34,1.01 v 2.49 h -1.9 v -5.42 h 1.81 z"
       style="font-style:normal;font-variant:normal;font-weight:800;font-stretch:normal;font-size:10px;font-family:Montserrat;-inkscape-font-specification:'Montserrat Ultra-Bold';fill:#050c33;fill-opacity:1"
       id="path43" />
    <path
       d="m 70.955136,32.582949 v 4.43 q 0,1.51 -0.82,2.26 -0.82,0.76 -2.36,0.76 -0.8,0 -1.5,-0.18 -0.7,-0.18 -1.19,-0.53 l 0.69,-1.33 q 0.33,0.27 0.83,0.42 0.51,0.16 1,0.16 0.75,0 1.1,-0.33 0.35,-0.33 0.35,-0.98 v -0.18 q -0.55,0.64 -1.61,0.64 -0.72,0 -1.33,-0.32 -0.61,-0.33 -0.97,-0.92 -0.36,-0.6 -0.36,-1.38 0,-0.77 0.36,-1.36 0.36,-0.6 0.97,-0.92 0.61,-0.33 1.33,-0.33 1.16,0 1.7,0.75 v -0.66 z m -3.06,3.63 q 0.51,0 0.84,-0.31 0.34,-0.31 0.34,-0.8 0,-0.49 -0.33,-0.79 -0.33,-0.31 -0.85,-0.31 -0.52,0 -0.86,0.31 -0.33,0.3 -0.33,0.79 0,0.49 0.34,0.8 0.34,0.31 0.85,0.31 z"
       style="font-style:normal;font-variant:normal;font-weight:800;font-stretch:normal;font-size:10px;font-family:Montserrat;-inkscape-font-specification:'Montserrat Ultra-Bold';fill:#050c33;fill-opacity:1"
       id="path45" />
  </g>
  <path
     d="m 1.8570218,26.75 74.9999992,0"
     id="path30-3"
     inkscape:connector-curvature="0"
     style="stroke:#f14d34;stroke-width:2.5"
     sodipodi:nodetypes="cc" />
  <path
     d="m 56.013323,49.73617 0,-3 c 0,-0.9665 0.7835,-1.75 1.75,-1.75 l 1.2286,0 8.7714,0 c 0.9665,0 1.75,0.7835 1.75,1.75 l 0,3 c 0,0.9665 -0.7835,1.75 -1.75,1.75 l -8.7714,0 -1.2286,0 c -0.9665,0 -1.75,-0.7835 -1.75,-1.75 z"
     id="path10-6"
     inkscape:connector-curvature="0"
     style="stroke:#f14d34;stroke-width:2.5" />
  <path
     d="m 21.269323,49.736604 0,-3 c 0,-0.9665 0.7835,-1.75 1.75,-1.75 l 1.2286,0 8.7714,0 c 0.9665,0 1.75,0.7835 1.75,1.75 l 0,3 c 0,0.9665 -0.7835,1.75 -1.75,1.75 l -8.7714,0 -1.2286,0 c -0.9665,0 -1.75,-0.7835 -1.75,-1.75 z"
     id="path12-7"
     inkscape:connector-curvature="0"
     style="stroke:#f14d34;stroke-width:2.5" />
  <path
     d="m 9.5193228,45.736604 7.0000002,0"
     id="path28-5"
     inkscape:connector-curvature="0"
     style="stroke:#f14d34;stroke-width:3" />
  <path
     d="m 9.5193228,50.736604 4.0000002,0"
     id="path30-35"
     inkscape:connector-curvature="0"
     style="stroke:#f14d34;stroke-width:3" />
  <path
     d="m 44.263323,45.73617 7,0"
     id="path32-6"
     inkscape:connector-curvature="0"
     style="stroke:#f14d34;stroke-width:3" />
  <path
     d="m 44.263323,50.73617 4,0"
     id="path34-2"
     inkscape:connector-curvature="0"
     style="stroke:#f14d34;stroke-width:3" />
  <path
     inkscape:connector-curvature="0"
     style="stroke:#f14d34;stroke-width:2.5"
     d="m 9.519,21.054723 3,0"
     id="path10-9" />
  <path
     inkscape:connector-curvature="0"
     style="stroke:#f14d34;stroke-width:2.5"
     d="m 15.519,21.054723 3,0"
     id="path12-1" />
  <path
     inkscape:connector-curvature="0"
     style="stroke:#f14d34;stroke-width:2.5"
     d="m 21.519,21.054723 3,0"
     id="path14-2" />
</svg>
