<?xml version="1.0" encoding="UTF-8" standalone="no"?>
<svg
   xmlns:dc="http://purl.org/dc/elements/1.1/"
   xmlns:cc="http://creativecommons.org/ns#"
   xmlns:rdf="http://www.w3.org/1999/02/22-rdf-syntax-ns#"
   xmlns:svg="http://www.w3.org/2000/svg"
   xmlns="http://www.w3.org/2000/svg"
   xmlns:sodipodi="http://sodipodi.sourceforge.net/DTD/sodipodi-0.dtd"
   xmlns:inkscape="http://www.inkscape.org/namespaces/inkscape"
   width="81"
   height="81"
   viewBox="0 0 81 81"
   fill="none"
   version="1.1"
   id="svg34"
   sodipodi:docname="competency-5.svg"
   inkscape:version="0.92.0 unknown">
  <metadata
     id="metadata40">
    <rdf:RDF>
      <cc:Work
         rdf:about="">
        <dc:format>image/svg+xml</dc:format>
        <dc:type
           rdf:resource="http://purl.org/dc/dcmitype/StillImage" />
      </cc:Work>
    </rdf:RDF>
  </metadata>
  <defs
     id="defs38" />
  <sodipodi:namedview
     pagecolor="#ffffff"
     bordercolor="#666666"
     borderopacity="1"
     objecttolerance="10"
     gridtolerance="10"
     guidetolerance="10"
     inkscape:pageopacity="0"
     inkscape:pageshadow="2"
     inkscape:window-width="1847"
     inkscape:window-height="1053"
     id="namedview36"
     showgrid="false"
     inkscape:zoom="5.6568543"
     inkscape:cx="14.447902"
     inkscape:cy="27.252635"
     inkscape:window-x="73"
     inkscape:window-y="27"
     inkscape:window-maximized="1"
     inkscape:current-layer="svg34" />
  <path
     d="M 3,59.82 V 64 c 0,2.7614 2.23857,5 5,5 h 25.3194 39.5695 v 0 C 75.1594,69 77,67.1594 77,64.8889 V 59.82 m -74,0 V 20 C 3,17.2386 5.23858,15 8,15 H 10.6176 14 M 3,59.82 h 43.5 m 30.5,0 V 20 c 0,-2.7614 -2.2386,-5 -5,-5 H 70.4706 53.5 M 77,59.82 H 65"
     id="path2"
     inkscape:connector-curvature="0"
     style="stroke:#f14d34;stroke-width:2.5"
     sodipodi:nodetypes="csscccsccsscccccsscccc" />
  <path
     d="M32 69V76H48V69"
     stroke="#F14D34"
     stroke-width="2.5"
     id="path12" />
  <path
     d="M57 76H23"
     stroke="#F14D34"
     stroke-width="2.5"
     id="path14" />
  <path
     style="fill:#f14d34;fill-opacity:1;stroke-width:0.10240921"
     d="m 58.060921,45.597907 v -7.130646 c 0,-0.565508 -0.457897,-1.023505 -1.023504,-1.023505 -0.565603,0 -1.023503,0.457997 -1.023503,1.023505 v 7.130646 m -4.377396,9.078125 1.682657,-0.534437 1.246831,-5.221792 -4.045943,-4.551182 3.44458,-0.801513 V 32.400963 c 0,-0.565503 -0.457897,-1.025769 -1.023505,-1.025769 h -6.55314 c -0.565607,0 -1.02577,0.460266 -1.02577,1.025769 v 19.196944 m -2.04701,2 V 39.570018 c 0,-0.56551 -0.457898,-1.025769 -1.023505,-1.025769 h -6.555405 c -0.565605,0 -1.023504,0.460259 -1.023504,1.025769 v 14.027889 h -2.049272 v -8.154064 c 0,-0.565509 -0.457898,-1.023505 -1.023503,-1.023503 H 25.08689 c -0.565611,0 -1.025768,0.457994 -1.025768,1.023503 v 8.154064 h -8.806209 c -0.564685,0 -1.023504,-0.458816 -1.023504,-1.023503 V 6.2857652 c 0,-0.5646805 0.458819,-1.0235034 1.023504,-1.0235034 h 26.418625 v 6.7592012 c 0,1.694051 1.378724,3.072776 3.072775,3.072776 h 6.759202 v 12.59453 c 0,0.565503 0.457898,1.025769 1.023503,1.025767 0.565609,0 1.023505,-0.460264 1.023505,-1.025767 v -13.6203 c 0,-0.271585 -0.106895,-0.530223 -0.2989,-0.722338 L 43.421647,3.5141532 C 43.229517,3.3221423 42.968633,3.2129902 42.697044,3.2129902 H 15.254913 c -1.694053,0 -3.072776,1.3787251 -3.072776,3.072775 V 52.574404 c 0,1.694051 1.378723,3.072775 3.072776,3.072775 H 42.3125 m 18,0 h 3.280322 c 0.565609,0 1.023505,-0.458006 1.023505,-1.023503 V 25.614589 c 0,-0.565502 -0.457896,-1.023504 -1.023505,-1.023504 h -6.555405 c -0.565603,0 -1.023503,0.458002 -1.023503,1.023504 v 5.171865 c 0,0.565506 0.4579,1.025767 1.023503,1.025768 0.565607,0 1.023504,-0.460262 1.023504,-1.025768 v -4.146097 h 4.506135 v 26.95755 H 60.313988 M 43.72281,6.7092064 50.056306,13.044967 h -5.309993 c -0.564786,0 -1.023503,-0.458819 -1.023503,-1.023504 z M 27.090874,8.8173519 c -0.565606,0 -1.023504,0.4602661 -1.023504,1.0257684 v 1.8409477 c -4.714,0.511739 -8.396355,4.517669 -8.396355,9.365513 0,5.193684 4.226173,9.417593 9.419859,9.417593 4.847849,0 8.851509,-3.679989 9.363248,-8.394089 h 1.843213 c 0.56561,0 1.023502,-0.458002 1.023502,-1.023504 0,-6.743748 -5.486314,-12.2322291 -12.229963,-12.2322291 z m 1.023505,2.1013541 c 4.798073,0.481523 8.62584,4.30703 9.107372,9.105108 h -9.107372 z m -2.047009,2.830485 v 7.298125 c 0,0.565505 0.457898,1.025769 1.023504,1.025769 h 7.300389 c -0.500065,3.581246 -3.583652,6.347082 -7.300389,6.347082 -4.064313,0 -7.370587,-3.308534 -7.370587,-7.372851 0,-3.716738 2.76583,-6.798061 6.347083,-7.298125 z m -7.329826,19.598285 c -0.565606,0 -1.025769,0.457999 -1.025769,1.023505 0,0.565502 0.460163,1.025767 1.025769,1.025767 h 19.559791 c 0.56561,0 1.023502,-0.460265 1.023502,-1.025767 0,-0.565506 -0.457892,-1.023505 -1.023502,-1.023505 z m 38.299873,0.06567 c -0.269335,0 -0.534123,0.107507 -0.724605,0.298898 -0.190478,0.190477 -0.298898,0.455268 -0.298898,0.724604 0,0.269337 0.108425,0.534126 0.298898,0.724606 0.190478,0.190381 0.45527,0.301164 0.724605,0.301164 0.269338,0 0.534123,-0.110681 0.724605,-0.301164 0.190478,-0.190478 0.298899,-0.455269 0.298899,-0.724606 0,-0.269336 -0.108414,-0.534118 -0.298899,-0.724604 -0.190479,-0.191388 -0.455267,-0.298898 -0.724605,-0.298898 z M 49.099,43.885002 l 4.062337,4.854176 -0.721264,4.200923 -3.814176,0.73285 L 47.4115,53.5625 V 33.424506 h 4.506134 v 10.173438 m -33.18009,-5.309531 c -0.565606,0 -1.025769,0.457994 -1.025769,1.023504 0,0.5655 0.460163,1.025768 1.025769,1.025768 h 6.553141 c 0.565605,0 1.023503,-0.460269 1.023503,-1.025768 0,-0.56551 -0.457898,-1.023504 -1.023503,-1.023504 z m 11.681981,0 c -0.27036,0 -0.534123,0.110567 -0.724604,0.301164 -0.191509,0.190479 -0.298898,0.453001 -0.298898,0.72234 0,0.269338 0.107394,0.534227 0.298898,0.724604 0.190479,0.190479 0.454244,0.301164 0.724604,0.301164 0.269336,0 0.534122,-0.110591 0.724605,-0.301164 0.190478,-0.190381 0.2989,-0.455268 0.298899,-0.724604 0,-0.269338 -0.108414,-0.531859 -0.298899,-0.72234 -0.190478,-0.190478 -0.455269,-0.301164 -0.724605,-0.301164 z m 6.34029,2.305148 h 4.506134 V 53.597944 H 36.759815 Z M 26.110394,46.46965 h 4.506134 v 7.128297 h -4.506134 z"
     id="path2-7"
     inkscape:connector-curvature="0"
     sodipodi:nodetypes="csssccccccssssccssssccscsscsssscsscscssccsssssccssssssscsccccccsscsscsscssscccccsscsscsssssssscscscscsccccccccsssssssscscscccscccccccccc" />
  <path
     inkscape:connector-curvature="0"
     style="stroke:#050c33;stroke-width:2.5"
     d="m 65.923936,61.132984 -4.9918,-4.9917 c 1.1416,-3.3116 0.3529,-7.1791 -2.3441,-9.8761 -2.7723,-2.7723 -6.7815,-3.5282 -10.1524,-2.2438 l 5.231,5.231 -0.569612,2.45478 -0.423388,1.82462 -4.2794,0.9929 -5.2309,-5.231 c -1.2844,3.3709 -0.5285,7.3801 2.2438,10.1524 2.697,2.697 6.5644,3.4857 9.8761,2.3441 l 4.9917,4.9918"
     id="path8-3"
     sodipodi:nodetypes="ccsccccccscc" />
</svg>
