<?xml version="1.0" encoding="UTF-8" standalone="no"?>
<svg
   xmlns:dc="http://purl.org/dc/elements/1.1/"
   xmlns:cc="http://creativecommons.org/ns#"
   xmlns:rdf="http://www.w3.org/1999/02/22-rdf-syntax-ns#"
   xmlns:svg="http://www.w3.org/2000/svg"
   xmlns="http://www.w3.org/2000/svg"
   xmlns:sodipodi="http://sodipodi.sourceforge.net/DTD/sodipodi-0.dtd"
   xmlns:inkscape="http://www.inkscape.org/namespaces/inkscape"
   width="81"
   height="81"
   viewBox="0 0 81 81"
   fill="none"
   version="1.1"
   id="svg24"
   sodipodi:docname="competency-4.svg"
   inkscape:version="0.92.0 unknown">
  <metadata
     id="metadata30">
    <rdf:RDF>
      <cc:Work
         rdf:about="">
        <dc:format>image/svg+xml</dc:format>
        <dc:type
           rdf:resource="http://purl.org/dc/dcmitype/StillImage" />
      </cc:Work>
    </rdf:RDF>
  </metadata>
  <defs
     id="defs28" />
  <sodipodi:namedview
     pagecolor="#ffffff"
     bordercolor="#666666"
     borderopacity="1"
     objecttolerance="10"
     gridtolerance="10"
     guidetolerance="10"
     inkscape:pageopacity="0"
     inkscape:pageshadow="2"
     inkscape:window-width="1847"
     inkscape:window-height="1053"
     id="namedview26"
     showgrid="false"
     inkscape:zoom="4.1204247"
     inkscape:cx="-6.0639155"
     inkscape:cy="21.775438"
     inkscape:window-x="73"
     inkscape:window-y="27"
     inkscape:window-maximized="1"
     inkscape:current-layer="svg24" />
  <path
     d="m 64,25 v -4 c 0,-2.7614 -2.2386,-5 -5,-5 H 21.3286 11 c -2.76142,0 -5,2.2386 -5,5 v 42 c 0,2.7614 2.23857,5 5,5 H 21.3286 59 c 2.7614,0 5,-2.2386 5,-5 v -3"
     id="path4"
     inkscape:connector-curvature="0"
     style="stroke:#f14d34;stroke-width:2.5"
     sodipodi:nodetypes="csscsssscssc" />
  <path
     d="M 41.25,56 V 29 c 0,-2.0711 1.6789,-3.75 3.75,-3.75 H 50.8357 76 c 2.0711,0 3.75,1.6789 3.75,3.75 v 27 c 0,2.0711 -1.6789,3.75 -3.75,3.75 H 50.8357 45 c -2.0711,0 -3.75,-1.6789 -3.75,-3.75 z"
     id="path6"
     inkscape:connector-curvature="0"
     style="stroke:#f14d34;stroke-width:2.5"
     sodipodi:nodetypes="ssscsssscss" />
  <path
     d="M12 27C13.4815 27 29.284 27 37 27"
     stroke="#F14D34"
     stroke-width="2.5"
     id="path10" />
  <path
     d="M12 58C12.9481 58 23.0617 58 28 58"
     stroke="#F14D34"
     stroke-width="2.5"
     id="path12" />
  <path
     d="M12 62C13.1852 62 25.8272 62 32 62"
     stroke="#F14D34"
     stroke-width="2.5"
     id="path14" />
  <path
     d="M6 21C9.43704 21 46.0988 21 64 21"
     stroke="#F14D34"
     stroke-width="2.5"
     id="path20" />
  <text
     xml:space="preserve"
     style="font-style:normal;font-weight:normal;font-size:13.94385433px;line-height:8.7149086px;font-family:sans-serif;letter-spacing:0px;word-spacing:0px;fill:#050c33;fill-opacity:1;stroke:none;stroke-width:0.34859636;"
     x="11.604313"
     y="46.953091"
     id="text34"><tspan
       sodipodi:role="line"
       id="tspan32"
       x="11.604313"
       y="46.953091"
       style="font-style:normal;font-variant:normal;font-weight:bold;font-stretch:normal;font-family:sans-serif;-inkscape-font-specification:'sans-serif Bold';stroke-width:0.34859636;fill:#050c33;fill-opacity:1;">A/B</tspan></text>
  <path
     d="m 58.202996,28.121845 c -0.267467,0.0073 -0.51401,0.14598 -0.659179,0.370626 l -2.35027,3.525568 h -8.004544 c -0.447833,0 -0.810998,0.363165 -0.810998,0.810997 v 8.109974 c 0,0.447833 0.363165,0.810998 0.810998,0.810998 h 8.109974 c 0.447833,0 0.810997,-0.363165 0.810997,-0.810998 v -6.398607 l -1.621995,2.432993 v 3.154617 H 48 v -6.487979 h 6.112 l -2.28101,3.421436 -0.996878,-1.993918 c -0.195451,-0.403066 -0.68059,-0.571429 -1.083655,-0.375979 -0.403066,0.19545 -0.571429,0.680589 -0.375979,1.083655 0.0029,0.0058 0.0057,0.01168 0.0088,0.01752 l 1.621995,3.24399 c 0.200316,0.400632 0.687401,0.563156 1.088196,0.36284 0.126191,-0.06309 0.23373,-0.157983 0.312072,-0.275415 l 6.487979,-9.731969 c 0.253842,-0.369166 0.160415,-0.874093 -0.208751,-1.127935 -0.1416,-0.09716 -0.310125,-0.147115 -0.481732,-0.142411 z M 47.189003,43.378004 c -0.447833,0 -0.810998,0.363165 -0.810998,0.810997 v 8.109974 c 0,0.447833 0.363165,0.810998 0.810998,0.810998 h 8.109974 c 0.447833,0 0.810997,-0.363165 0.810997,-0.810998 v -8.109974 c 0,-0.447832 -0.363164,-0.810997 -0.810997,-0.810997 z M 48,45 h 6.487979 v 6.487978 H 48 Z"
     id="path2"
     inkscape:connector-curvature="0"
     style="color-interpolation:sRGB;fill:#050c33;fill-opacity:1;stroke-width:0.16219948;color-rendering:auto;image-rendering:auto;shape-rendering:auto"
     sodipodi:nodetypes="cccssssssccccccccsccscccccsssssssssccccc" />
  <path
     inkscape:connector-curvature="0"
     style="stroke:#f14d34;stroke-width:2.5"
     d="m 59.271,46.077331 c 0.9481,0 11.0617,0 16,0"
     id="path12-6" />
  <path
     inkscape:connector-curvature="0"
     style="stroke:#f14d34;stroke-width:2.5"
     d="m 59.271,50.077331 h 14"
     id="path14-7"
     sodipodi:nodetypes="cc" />
  <path
     inkscape:connector-curvature="0"
     style="stroke:#f14d34;stroke-width:2.5"
     d="m 59.271187,34.816737 c 0.9481,0 11.0617,0 16,0"
     id="path12-6-5" />
  <path
     inkscape:connector-curvature="0"
     style="stroke:#f14d34;stroke-width:2.5"
     d="m 59.271187,38.816737 h 14"
     id="path14-7-3"
     sodipodi:nodetypes="cc" />
  <path
     inkscape:connector-curvature="0"
     style="stroke:#f14d34;stroke-width:2.5"
     d="m 11.842409,53.89151 c 1.1852,0 13.8272,0 20,0"
     id="path14-6" />
  <path
     inkscape:connector-curvature="0"
     style="stroke:#f14d34;stroke-width:2.5"
     d="m 11.842,31.06144 c 0.9481,0 11.0617,0 16,0"
     id="path12-2" />
</svg>
